<svg width="18" height="18" viewBox="0 0 18 18" fill="none" xmlns="http://www.w3.org/2000/svg">
<path d="M1.80078 9.4498C1.80078 8.70422 2.4052 8.0998 3.15078 8.0998C3.89637 8.0998 4.50078 8.70422 4.50078 9.4498V14.8498C4.50078 15.5954 3.89637 16.1998 3.15078 16.1998C2.4052 16.1998 1.80078 15.5954 1.80078 14.8498V9.4498Z" fill="white"/>
<path d="M5.40078 9.29981V14.1873C5.40078 14.8691 5.78599 15.4924 6.3958 15.7973L6.44066 15.8197C6.94054 16.0697 7.49174 16.1998 8.05063 16.1998H12.9251C13.7832 16.1998 14.5219 15.5942 14.6902 14.7528L15.7702 9.35281C15.9929 8.23899 15.141 7.1998 14.0051 7.1998H10.8008V3.5998C10.8008 2.60569 9.99489 1.7998 9.00078 1.7998C8.50372 1.7998 8.10078 2.20275 8.10078 2.6998V3.2998C8.10078 4.07874 7.84814 4.83666 7.38078 5.4598L6.12078 7.1398C5.65342 7.76295 5.40078 8.52087 5.40078 9.29981Z" fill="white"/>
</svg>
